{"title":"David Guetta - She Wolf (Ft. Sia){M4A+MP4}(1080p)x264[VX][P2PDL]","uid":7687434,"size":43763425,"categoryP":"video","categoryS":"music_videos","magnet":"?xt=urn:btih:3001cfae659878d863fe9c97db2724436e4a12eb&amp;dn=David+Guetta+-+She+Wolf+%28Ft.+Sia%29%7BM4A%2BMP4%7D%281080p%29x264%5BVX%5D%5BP2PDL%5D&amp;tr=udp%3A%2F%2Ftracker.openbittorrent.com%3A80&amp;tr=udp%3A%2F%2Fopen.demonii.com%3A1337&amp;tr=udp%3A%2F%2Ftracker.coppersurfer.tk%3A6969&amp;tr=udp%3A%2F%2Fexodus.desync.com%3A6969","seeders":6,"leechers":1,"uploader":"Vitamin_X","files":-1,"time":1348998568,"description":"Music video by David Guetta performing She Wolf (Falling to Pieces). (P) 2012 What A Music Ltd / EMI Music France, Licence exclusive EMI Music France.\n\n                            1080p Full HD MP4 Video\n                                     +\n                             96 kbps/VBR M4A Audio\n\n\nCover:  &lt;a href=&quot;\nhttp://www.shotpix.com/images/16732508285221179221.jpg&quot; rel=&quot;nofollow&quot; target=&quot;_NEW&quot;&gt;\nhttp://www.shotpix.com/images/16732508285221179221.jpg&lt;/a&gt;\n\nGeneral\nFormat                         : MPEG-4\nFormat profile                 : Base Media / Version 2\nFile size                      : 37.0 MiB\nDuration                       : 3mn 57s\nOverall bit rate mode          : Variable\nOverall bit rate               : 1 306 Kbps\n\nVideo\nID                             : 1\nFormat                         : AVC\nFormat/Info                    : Advanced Video Codec\nDuration                       : 3mn 57s\nBit rate mode                  : Variable\nBit rate                       : 1 175 Kbps\nWidth                          : 1 920 pixels\nHeight                         : 1 080 pixels\nDisplay aspect ratio           : 16:9\nFrame rate                     : 23.976 fps\nScan type                      : Progressive\nStream size                    : 33.2 MiB (90%)\n\n\nAudio\nID                             : 2\nFormat                         : AAC\nFormat/Info                    : Advanced Audio Codec\nFormat profile                 : LC\nCodec ID                       : 40\nDuration                       : 3mn 57s\nBit rate mode                  : Variable\nBit rate                       : 128 Kbps\nMaximum bit rate               : 148 Kbps\nChannel(s)                     : 2 channels\nChannel positions              : Front: L R\nSampling rate                  : 48.0 KHz\nStream size                    : 3.62 MiB (10%)\n\n\nScreens:\n &lt;a href=&quot;\nhttp://www.shotpix.com/images/31688794431558513495.jpg&quot; rel=&quot;nofollow&quot; target=&quot;_NEW&quot;&gt;\nhttp://www.shotpix.com/images/31688794431558513495.jpg&lt;/a&gt; &lt;a href=&quot;\nhttp://www.shotpix.com/images/51265921935033193309.jpg&quot; rel=&quot;nofollow&quot; target=&quot;_NEW&quot;&gt;\nhttp://www.shotpix.com/images/51265921935033193309.jpg&lt;/a&gt;\n\n\n\nThumbs:\n &lt;a href=&quot;\nhttp://www.shotpix.com/images/20705795452497940447.jpg&quot; rel=&quot;nofollow&quot; target=&quot;_NEW&quot;&gt;\nhttp://www.shotpix.com/images/20705795452497940447.jpg&lt;/a&gt;\n\n\n------------------------------------------------------------------------\n\n\nNotes:\n\n* Best played on VLC Media Player.\n* Install shark007 codecs in case of any kind of problem in playback (For non-VLC Media Player users).\n* Alternatively, install Core AVC codecs, the fastest decoder that there is coupled with Community Center Codec Pack and play on Windows Media Player Classic.\n* Read NFO\n* Help in seeding this torrent as much as you can. \n\n\n\n\nGreets to: srkfan, VYTO, MgB, staff members at ExtraTorrent, TPB,KAT, 1337x, PublicHD, Ahashare,\nSilverTorrent, TorrentMafia, P2PDL, and all others\n\n\nEncoder Notes: Looking For Early Access To Anything You Can Provide DVDScr, R5, DVDRips, BluRay, Direct Audio, Early Music\nReleases, Seedboxes, Links, Dedicated Servers anything u can provide, Advance / Promo CDs/DVDs. If You Got anything to\noffer contact me at &quot;&lt;a class=&quot;__cf_email__&quot; href=&quot;/cdn-cgi/l/email-protection&quot; data-cfemail=&quot;87e4e8e9f3e6e4f3c7f3eee9feeaa9e2f2&quot;&gt;[email&amp;#160;protected]&lt;/a&gt;&lt;script cf-hash='f9e31' type=&quot;text/javascript&quot;&gt;\n/* &lt;![CDATA[ */!function(){try{var t=&quot;currentScript&quot;in document?document.currentScript:function(){for(var t=document.getElementsByTagName(&quot;script&quot;),e=t.length;e--;)if(t[e].getAttribute(&quot;cf-hash&quot;))return t[e]}();if(t&amp;&amp;t.previousSibling){var e,r,n,i,c=t.previousSibling,a=c.getAttribute(&quot;data-cfemail&quot;);if(a){for(e=&quot;&quot;,r=parseInt(a.substr(0,2),16),n=2;a.length-n;n+=2)i=parseInt(a.substr(n,2),16)^r,e+=String.fromCharCode(i);e=document.createTextNode(e),c.parentNode.replaceChild(e,c)}}}catch(u){}}();/* ]]&gt; */&lt;/script&gt;&quot;\n                                          \n                                    Enjoy!","torrent":{"xt":"urn:btih:3001cfae659878d863fe9c97db2724436e4a12eb","amp;dn":"David+Guetta+-+She+Wolf+%28Ft.+Sia%29%7BM4A%2BMP4%7D%281080p%29x264%5BVX%5D%5BP2PDL%5D","amp;tr":["udp%3A%2F%2Ftracker.openbittorrent.com%3A80","udp%3A%2F%2Fopen.demonii.com%3A1337","udp%3A%2F%2Ftracker.coppersurfer.tk%3A6969","udp%3A%2F%2Fexodus.desync.com%3A6969"],"infoHash":"3001cfae659878d863fe9c97db2724436e4a12eb","infoHashBuffer":{"type":"Buffer","data":[48,1,207,174,101,152,120,216,99,254,156,151,219,39,36,67,110,74,18,235]},"announce":[],"urlList":[]}}